<?xml version="1.0" standalone="no"?>
<!DOCTYPE svg PUBLIC "-//W3C//DTD SVG 20010904//EN"
 "http://www.w3.org/TR/2001/REC-SVG-20010904/DTD/svg10.dtd">
<svg version="1.0" xmlns="http://www.w3.org/2000/svg"
 width="800.000000pt" height="800.000000pt" viewBox="0 0 800.000000 800.000000"
 preserveAspectRatio="xMidYMid meet">
<metadata>
Created by potrace 1.11, written by Peter Selinger 2001-2013
</metadata>
<g transform="translate(0.000000,800.000000) scale(0.100000,-0.100000)"
fill="#000000" stroke="none">
<path d="M3749 7996 c-2 -2 -44 -7 -94 -10 -130 -10 -378 -46 -480 -70 -5 -2
-28 -6 -50 -10 -59 -12 -325 -84 -360 -99 -16 -6 -32 -12 -35 -12 -43 -5 -329
-123 -495 -205 -155 -77 -180 -90 -310 -168 -129 -77 -424 -288 -511 -367 -7
-5 -45 -40 -86 -77 -291 -263 -515 -530 -726 -865 -78 -126 -224 -403 -275
-523 -8 -19 -23 -53 -32 -75 -96 -227 -206 -613 -239 -840 -4 -23 -8 -52 -11
-65 -3 -14 -7 -49 -11 -78 -3 -29 -7 -62 -9 -72 -13 -65 -20 -240 -20 -470 0
-231 4 -320 20 -455 11 -92 15 -122 19 -145 3 -14 10 -54 16 -90 108 -645 416
-1313 845 -1835 149 -182 360 -396 506 -515 l36 -29 45 42 c24 23 100 94 168
157 68 63 128 120 134 125 6 6 30 28 52 48 l42 37 38 -35 c22 -19 62 -54 91
-77 29 -24 52 -46 53 -50 0 -12 -141 -167 -313 -344 l-78 -82 113 -74 c427
-282 900 -482 1382 -584 50 -11 305 -53 351 -58 28 -3 82 -9 120 -13 145 -16
701 -8 815 11 14 2 66 10 115 16 713 95 1453 430 2020 915 140 119 294 271
435 430 180 202 402 533 542 810 80 157 203 452 223 535 3 8 11 33 19 55 17
47 73 254 92 340 9 38 34 170 40 209 3 21 7 48 10 60 2 11 6 45 10 74 3 29 7
62 9 72 13 65 20 240 20 470 0 231 -4 319 -20 455 -2 17 -6 52 -9 78 -3 27 -8
52 -10 55 -2 4 -7 31 -10 60 -3 29 -13 85 -21 125 -9 39 -18 83 -21 97 -3 14
-10 43 -16 65 -5 22 -12 49 -14 59 -7 37 -57 202 -95 311 -49 144 -107 282
-179 430 -54 108 -74 147 -150 280 -101 178 -300 452 -454 625 -129 144 -492
487 -504 476 -5 -5 -10 -38 -17 -116 -9 -100 -48 -249 -84 -327 -42 -89 -83
-145 -169 -230 -163 -162 -368 -273 -502 -273 -101 0 -244 108 -344 258 -50
76 -125 211 -131 239 -3 10 -17 52 -31 93 -22 62 -26 94 -28 190 0 63 2 135 6
160 15 105 67 277 161 532 l35 96 -26 11 c-143 56 -481 149 -642 176 -134 22
-215 35 -270 41 -36 4 -76 9 -90 11 -34 5 -606 13 -611 9z m995 -758 c80 -208
151 -416 162 -472 2 -16 7 -33 9 -37 10 -15 95 -307 114 -391 35 -151 43 -212
43 -328 -1 -161 -48 -333 -143 -526 -62 -123 -75 -137 -135 -135 -27 0 -58 3
-69 5 -219 47 -322 95 -427 200 -275 276 -362 647 -241 1029 80 256 278 509
527 675 60 39 112 72 116 72 5 0 24 -42 44 -92z m2177 -865 c0 -10 2 -27 5
-38 14 -70 20 -322 10 -385 -3 -14 -7 -47 -11 -75 -30 -244 -163 -517 -333
-682 -211 -205 -504 -305 -796 -271 -204 24 -474 168 -478 256 -1 27 12 133
23 182 34 152 100 292 172 362 31 30 227 157 322 208 113 62 367 188 515 255
69 32 181 84 250 117 115 55 165 71 245 81 66 9 75 7 76 -10z m-3128 -735 c38
-40 141 -148 230 -239 232 -238 306 -318 430 -467 197 -237 207 -265 222 -607
3 -66 8 -128 11 -137 5 -16 -96 -268 -119 -297 -16 -19 -159 -88 -221 -106
-210 -63 -402 -20 -557 123 -108 100 -197 250 -262 442 -31 90 -45 143 -62
230 -3 14 -7 36 -10 50 -9 42 -17 151 -17 225 0 69 11 215 17 225 2 3 6 25 10
49 10 68 50 198 90 291 35 83 153 290 164 290 3 0 37 -32 74 -72z m1824 -1088
c44 -11 116 -32 159 -48 106 -39 173 -55 279 -67 33 -4 71 -9 85 -11 14 -2
106 -6 205 -10 99 -4 203 -8 230 -9 28 -1 64 -3 82 -4 29 -1 31 -3 26 -33 -9
-60 -54 -182 -95 -258 -145 -270 -431 -501 -755 -609 -157 -53 -261 -69 -418
-66 -160 3 -180 6 -290 41 -267 86 -397 234 -390 445 3 81 23 173 44 196 9 10
45 63 81 118 71 110 74 113 175 189 95 72 193 117 285 132 19 3 37 7 38 9 12
11 192 0 259 -15z m-2624 -23 c3 -7 79 -126 169 -263 196 -297 239 -364 305
-469 80 -129 199 -346 216 -395 18 -51 17 -193 -2 -320 -6 -41 -13 -97 -16
-125 -3 -41 -19 -74 -82 -179 -77 -128 -79 -130 -140 -157 -110 -51 -196 -68
-318 -65 -185 4 -297 60 -418 210 -74 90 -140 248 -163 386 -14 86 -15 95 -21
165 -43 465 96 875 397 1173 57 55 65 60 73 39z m-719 -1134 c156 -433 231
-664 278 -858 5 -22 12 -80 15 -130 6 -103 -7 -163 -82 -398 -25 -78 -45 -146
-45 -153 0 -6 -17 -24 -37 -40 -21 -15 -71 -54 -112 -87 -98 -79 -175 -101
-361 -101 -82 0 -103 4 -150 26 -59 28 -112 72 -153 128 -53 73 -133 259 -158
369 -6 25 -13 55 -16 66 -13 48 -10 323 3 400 75 417 325 783 659 962 33 18
65 32 70 33 6 0 45 -98 89 -217z m2251 -186 c101 -26 151 -40 214 -62 173 -61
291 -73 853 -84 l38 -1 -21 -52 c-93 -240 -248 -450 -449 -613 -68 -55 -223
-159 -239 -160 -3 -1 -24 -10 -46 -22 -53 -27 -199 -79 -283 -99 -92 -22 -325
-27 -425 -9 -122 22 -196 45 -283 86 -117 55 -174 120 -204 229 -12 44 -16
211 -6 260 3 13 8 42 11 65 6 40 123 249 168 300 25 28 136 91 212 120 107 41
185 53 315 50 69 -2 134 -5 145 -8z m-1210 -1207 c17 -6 30 -10 30 -9 0 4 81
-24 125 -44 25 -12 74 -39 110 -61 36 -21 97 -54 136 -72 116 -54 204 -77 620
-161 l132 -26 -10 -35 c-39 -142 -208 -352 -378 -468 -178 -123 -427 -218
-630 -241 -81 -9 -280 -10 -340 -1 -311 46 -572 207 -635 393 -16 48 -21 149
-10 197 2 13 7 34 9 48 2 14 12 55 21 93 l17 67 121 106 c150 131 278 197 433
224 63 10 211 4 249 -10z"/>
</g>
</svg>
